# xmcd
#
# Track frame offsets:
#	150
#	15063
#	35647
#	45697
#	55344
#	70879
#	82561
#	91967
#	111356
#	124393
#	134458
#	145567
#	165742
#	177139
#	188124
#	190174
#	206799
#	220858
#	239715
#	248184
#	256581
#	272624
#	280077
#	299945
#	309248
#	313113
#	328259
#	337155
#
# Disc length: 4536 seconds
#
# Revision: 0
# Processed by: cddbd v1.5.2PL0 Copyright (c) Steve Scherf et al.
# Submitted via: dBpowerAMP V4.0
#
DISCID=a811b61c
DTITLE=Jugbusters - Live Radio Show
DYEAR=2011
DGENRE=Bluegrass
TTITLE0=Fly Around My Pretty Little Miss
TTITLE1=Worried Man Blues
TTITLE2=Mississippi Sawyer
TTITLE3=Shout Little Lula
TTITLE4=New River Train
TTITLE5=Cheetah Waltz
TTITLE6=Story (Brien Fain)
TTITLE7=Katie Cline
TTITLE8=Polecat Blues
TTITLE9=Kentucky Waltz
TTITLE10=Sally Ann
TTITLE11=Rocky Island
TTITLE12=Sweet Marie
TTITLE13=Ragtime Annie
TTITLE14=Announcer
TTITLE15=You Better Get in that Number
TTITLE16=Benton's Dream
TTITLE17=Pretty Polly
TTITLE18=Sourwood Mountain (dance)
TTITLE19=Sourwood Mountain
TTITLE20=Going Around this World
TTITLE21=John Brown's Dream
TTITLE22=Reuben's Train
TTITLE23=Cluck 'Ol Hen
TTITLE24=Story (John Hylton)
TTITLE25=Lonesome Road Blues
TTITLE26=Cripple Creek
TTITLE27=Home Sweet Home
EXTD=
EXTT0=
EXTT1=
EXTT2=
EXTT3=
EXTT4=
EXTT5=
EXTT6=
EXTT7=
EXTT8=
EXTT9=
EXTT10=
EXTT11=
EXTT12=
EXTT13=
EXTT14=
EXTT15=
EXTT16=
EXTT17=
EXTT18=
EXTT19=
EXTT20=
EXTT21=
EXTT22=
EXTT23=
EXTT24=
EXTT25=
EXTT26=
EXTT27=
PLAYORDER=
